<svg width="149" height="34" viewBox="0 0 149 34" fill="none" xmlns="http://www.w3.org/2000/svg">
<path d="M11.655 30.6905C10.5683 30.6905 9.57662 30.5139 8.68006 30.1607C7.7835 29.7804 7.02279 29.3049 6.39791 28.7344C5.8002 28.1639 5.35192 27.5797 5.05307 26.982L4.97156 30.283H0.733282V0.32975H5.05307V11.8628L4.84931 15.0415C5.14816 14.3351 5.65078 13.6831 6.35716 13.0854C7.06354 12.4876 7.89218 12.0122 8.84307 11.659C9.82114 11.2786 10.8535 11.0885 11.9403 11.0885C13.8149 11.0885 15.4314 11.5096 16.7899 12.3518C18.1483 13.1669 19.1943 14.3215 19.9278 15.8158C20.6614 17.2829 21.0281 18.9945 21.0281 20.9506C21.0281 22.9883 20.5934 24.7406 19.724 26.2077C18.8547 27.6477 17.7136 28.7616 16.3008 29.5494C14.8881 30.3102 13.3395 30.6905 11.655 30.6905ZM10.9215 27.0228C12.7689 27.0228 14.1409 26.4387 15.0375 25.2704C15.9612 24.1022 16.4231 22.6622 16.4231 20.9506C16.4231 19.1847 15.9612 17.7312 15.0375 16.5901C14.1409 15.4218 12.7689 14.8377 10.9215 14.8377C9.9434 14.8377 9.03325 15.0822 8.19103 15.5713C7.34881 16.0331 6.66959 16.6988 6.15339 17.5681C5.66436 18.4375 5.41984 19.4699 5.41984 20.6654V20.9506C5.44701 22.146 5.70511 23.2056 6.19415 24.1293C6.68318 25.0531 7.33522 25.773 8.15028 26.2892C8.9925 26.7783 9.91623 27.0228 10.9215 27.0228ZM25.531 30.283V11.5775H30.0953V30.283H25.531ZM27.8131 8.07277C26.9709 8.07277 26.2645 7.7875 25.694 7.21696C25.1506 6.64642 24.8789 5.94004 24.8789 5.09782C24.8789 4.3371 25.1506 3.68506 25.694 3.14169C26.2645 2.59832 26.9709 2.32663 27.8131 2.32663C28.6554 2.32663 29.3482 2.59832 29.8915 3.14169C30.4621 3.68506 30.7473 4.3371 30.7473 5.09782C30.7473 5.94004 30.4621 6.64642 29.8915 7.21696C29.3482 7.7875 28.6554 8.07277 27.8131 8.07277ZM37.3018 30.283V15.1637H34.0009V11.5775H37.3018V3.95674L41.7439 2.97868V11.5775H46.0637V15.1637H41.7439V30.283H37.3018Z" fill="#F9F9F9"/>
<path d="M89.5929 30.6905C87.9356 30.6905 86.387 30.2966 84.9471 29.5087C83.5343 28.7208 82.3932 27.5933 81.5238 26.1262C80.6544 24.6591 80.2197 22.9068 80.2197 20.8691C80.2197 18.913 80.5865 17.2014 81.3201 15.7343C82.0808 14.2672 83.1403 13.1261 84.4988 12.311C85.8844 11.496 87.5281 11.0885 89.4299 11.0885C90.5709 11.0885 91.6033 11.2922 92.5271 11.6998C93.478 12.0801 94.2658 12.5556 94.8907 13.1261C95.5428 13.6695 95.9775 14.1993 96.1948 14.7155L96.2763 11.5775H100.474V30.283H96.3171L96.2356 26.982C95.9639 27.5797 95.502 28.1639 94.85 28.7344C94.2251 29.3049 93.4644 29.7804 92.5678 30.1607C91.6712 30.5139 90.6796 30.6905 89.5929 30.6905ZM90.3264 27.0228C91.3316 27.0228 92.2418 26.7918 93.0568 26.33C93.8991 25.841 94.5647 25.1617 95.0537 24.2923C95.5699 23.423 95.828 22.3906 95.828 21.1951V20.9099C95.828 19.6873 95.5699 18.6277 95.0537 17.7312C94.5647 16.8074 93.8991 16.1011 93.0568 15.612C92.2418 15.0958 91.3316 14.8377 90.3264 14.8377C88.5061 14.8377 87.1341 15.4218 86.2104 16.5901C85.3138 17.7583 84.8655 19.1983 84.8655 20.9099C84.8655 22.6487 85.3138 24.1022 86.2104 25.2704C87.1341 26.4387 88.5061 27.0228 90.3264 27.0228ZM112.395 30.6905C110.52 30.6905 109.094 30.2966 108.116 29.5087C107.138 28.7208 106.472 27.6748 106.119 26.3707C105.793 25.0666 105.63 23.6267 105.63 22.0509V11.5775H110.031V20.9506C110.031 22.3906 110.112 23.5588 110.276 24.4554C110.466 25.3519 110.819 26.0175 111.335 26.4522C111.878 26.8598 112.68 27.0635 113.739 27.0635C114.5 27.0635 115.22 26.8598 115.899 26.4522C116.606 26.0175 117.19 25.4334 117.652 24.6999C118.114 23.9392 118.345 23.0969 118.345 22.1732V11.5775H122.705V30.283H119.119L118.63 27.5526C117.951 28.585 117.108 29.3729 116.103 29.9162C115.098 30.4324 113.862 30.6905 112.395 30.6905ZM128.011 30.283V0.32975H132.372V30.283H128.011ZM139.622 30.283V15.1637H136.321V11.5775H139.622V3.95674L144.064 2.97868V11.5775H148.384V15.1637H144.064V30.283H139.622Z" fill="#F9F9F9"/>
<path d="M78.0879 33.3584H49.4336V4.7041H78.0879V33.3584ZM53.4912 11.5771L63.3535 30.2832H64.209L74.0312 11.5771H69.1406L65.1465 20.0137L63.8428 23.3955L62.5381 20.0137L58.5039 11.5771H53.4912Z" fill="#F9F9F9"/>
</svg>
