<svg width="187" height="186" viewBox="0 0 187 186" fill="none" xmlns="http://www.w3.org/2000/svg">
<rect x="24.75" y="23.75" width="138.5" height="138.5" stroke="#262626" stroke-width="1.5"/>
<path d="M94 67C88.8577 67 83.8309 68.5249 79.5552 71.3818C75.2795 74.2387 71.947 78.2994 69.9791 83.0502C68.0113 87.8011 67.4964 93.0288 68.4996 98.0723C69.5028 103.116 71.9791 107.749 75.6152 111.385C79.2514 115.021 83.8842 117.497 88.9277 118.5C93.9712 119.504 99.1989 118.989 103.95 117.021C108.701 115.053 112.761 111.721 115.618 107.445C118.475 103.169 120 98.1423 120 93C119.993 86.1066 117.251 79.4976 112.377 74.6233C107.502 69.7489 100.893 67.0073 94 67ZM108 95H94C93.4696 95 92.9609 94.7893 92.5858 94.4142C92.2107 94.0391 92 93.5304 92 93V79C92 78.4696 92.2107 77.9609 92.5858 77.5858C92.9609 77.2107 93.4696 77 94 77C94.5304 77 95.0392 77.2107 95.4142 77.5858C95.7893 77.9609 96 78.4696 96 79V91H108C108.53 91 109.039 91.2107 109.414 91.5858C109.789 91.9609 110 92.4696 110 93C110 93.5304 109.789 94.0391 109.414 94.4142C109.039 94.7893 108.53 95 108 95Z" fill="#99C24D"/>
<rect width="48" height="48" transform="translate(137)" fill="white"/>
<path d="M178.94 12.4031L162.44 3.375C161.999 3.13141 161.504 3.00363 161 3.00363C160.496 3.00363 160.001 3.13141 159.56 3.375L143.06 12.4069C142.589 12.6647 142.195 13.0443 141.921 13.5061C141.647 13.9678 141.501 14.4947 141.5 15.0319V32.9644C141.501 33.5015 141.647 34.0285 141.921 34.4902C142.195 34.952 142.589 35.3316 143.06 35.5894L159.56 44.6213C160.001 44.8648 160.496 44.9926 161 44.9926C161.504 44.9926 161.999 44.8648 162.44 44.6213L178.94 35.5894C179.411 35.3316 179.805 34.952 180.079 34.4902C180.353 34.0285 180.499 33.5015 180.5 32.9644V15.0338C180.5 14.4957 180.355 13.9675 180.08 13.5047C179.806 13.0419 179.412 12.6614 178.94 12.4031ZM161 22.5L145.934 14.25L161 6L176.066 14.25L161 22.5ZM162.5 41.1825V25.0931L177.5 16.8844V32.9644L162.5 41.1825Z" fill="#262626"/>
<rect width="48" height="48" transform="translate(137 138)" fill="white"/>
<path d="M178.94 150.403L162.44 141.375C161.999 141.131 161.504 141.004 161 141.004C160.496 141.004 160.001 141.131 159.56 141.375L143.06 150.407C142.589 150.665 142.195 151.044 141.921 151.506C141.647 151.968 141.501 152.495 141.5 153.032V170.964C141.501 171.502 141.647 172.028 141.921 172.49C142.195 172.952 142.589 173.332 143.06 173.589L159.56 182.621C160.001 182.865 160.496 182.993 161 182.993C161.504 182.993 161.999 182.865 162.44 182.621L178.94 173.589C179.411 173.332 179.805 172.952 180.079 172.49C180.353 172.028 180.499 171.502 180.5 170.964V153.034C180.5 152.496 180.355 151.968 180.08 151.505C179.806 151.042 179.412 150.661 178.94 150.403ZM161 160.5L145.934 152.25L161 144L176.066 152.25L161 160.5ZM162.5 179.183V163.093L177.5 154.884V170.964L162.5 179.183Z" fill="#262626"/>
<rect width="48" height="48" fill="white"/>
<path d="M41.94 12.4031L25.44 3.375C24.9991 3.13141 24.5037 3.00363 24 3.00363C23.4963 3.00363 23.0009 3.13141 22.56 3.375L6.06 12.4069C5.58879 12.6647 5.19544 13.0443 4.92103 13.5061C4.64663 13.9678 4.50122 14.4947 4.5 15.0319V32.9644C4.50122 33.5015 4.64663 34.0285 4.92103 34.4902C5.19544 34.952 5.58879 35.3316 6.06 35.5894L22.56 44.6213C23.0009 44.8648 23.4963 44.9926 24 44.9926C24.5037 44.9926 24.9991 44.8648 25.44 44.6213L41.94 35.5894C42.4112 35.3316 42.8046 34.952 43.079 34.4902C43.3534 34.0285 43.4988 33.5015 43.5 32.9644V15.0338C43.4998 14.4957 43.3549 13.9675 43.0804 13.5047C42.8059 13.0419 42.412 12.6614 41.94 12.4031ZM24 22.5L8.93438 14.25L24 6L39.0656 14.25L24 22.5ZM25.5 41.1825V25.0931L40.5 16.8844V32.9644L25.5 41.1825Z" fill="#262626"/>
<rect width="48" height="48" transform="translate(0 138)" fill="white"/>
<path d="M41.94 150.403L25.44 141.375C24.9991 141.131 24.5037 141.004 24 141.004C23.4963 141.004 23.0009 141.131 22.56 141.375L6.06 150.407C5.58879 150.665 5.19544 151.044 4.92103 151.506C4.64663 151.968 4.50122 152.495 4.5 153.032V170.964C4.50122 171.502 4.64663 172.028 4.92103 172.49C5.19544 172.952 5.58879 173.332 6.06 173.589L22.56 182.621C23.0009 182.865 23.4963 182.993 24 182.993C24.5037 182.993 24.9991 182.865 25.44 182.621L41.94 173.589C42.4112 173.332 42.8046 172.952 43.079 172.49C43.3534 172.028 43.4988 171.502 43.5 170.964V153.034C43.4998 152.496 43.3549 151.968 43.0804 151.505C42.8059 151.042 42.412 150.661 41.94 150.403ZM24 160.5L8.93438 152.25L24 144L39.0656 152.25L24 160.5ZM25.5 179.183V163.093L40.5 154.884V170.964L25.5 179.183Z" fill="#262626"/>
</svg>
