<svg width="209" height="196" viewBox="0 0 209 196" fill="none" xmlns="http://www.w3.org/2000/svg">
<circle cx="105.399" cy="97.6547" r="97.2545" stroke="#D4D4D4" stroke-width="0.800449"/>
<rect x="19.6367" y="15.6474" width="36.5919" height="36.5919" rx="18.296" transform="rotate(-20.6476 19.6367 15.6474)" fill="#CCECFD"/>
<g clip-path="url(#clip0_3552_3)">
<path d="M43.8467 18.4725C42.492 18.8357 41.2652 19.5688 40.3036 20.5897C39.3419 21.6105 38.6834 22.8789 38.4017 24.2528C38.1669 25.3922 38.2002 26.5705 38.4991 27.6948C38.5474 27.8648 38.5298 28.0468 38.4497 28.2044C38.3696 28.362 38.233 28.4836 38.0672 28.5448C37.978 28.5756 37.8834 28.5878 37.7893 28.5804C37.6952 28.573 37.6037 28.5464 37.5204 28.502C37.4371 28.4577 37.3639 28.3966 37.3052 28.3227C37.2466 28.2487 37.2038 28.1635 37.1797 28.0723C36.9306 27.1455 36.8332 26.1845 36.8913 25.2267C36.8955 25.1651 36.8831 25.1035 36.8553 25.0484C36.8275 24.9934 36.7853 24.9468 36.7333 24.9137C36.6812 24.8805 36.6212 24.8621 36.5595 24.8602C36.4978 24.8583 36.4368 24.8731 36.3828 24.903C35.3112 25.4969 34.4687 26.4318 33.9892 27.5592C33.5097 28.6867 33.4206 29.942 33.7361 31.1259C34.5172 34.041 37.6212 35.7673 40.5413 34.9849L47.7483 33.0537C48.7293 32.7897 49.647 32.3306 50.4465 31.7038C51.246 31.077 51.9108 30.2954 52.4013 29.4057C52.8917 28.516 53.1977 27.5366 53.3009 26.5259C53.4041 25.5153 53.3024 24.4942 53.0019 23.5237C51.8083 19.6723 47.741 17.4291 43.8467 18.4725Z" fill="#33B0F6"/>
</g>
<g clip-path="url(#clip1_3552_3)">
<rect x="0.426025" y="138.443" width="36.5919" height="36.5919" rx="18.296" transform="rotate(-19.4763 0.426025 138.443)" fill="#E3E0FC"/>
<g clip-path="url(#clip2_3552_3)">
<path d="M31.2765 141.113L29.7672 141.647L29.5003 140.892C29.288 140.292 28.8458 139.8 28.2711 139.526C27.6963 139.251 27.0361 139.216 26.4357 139.429L12.8521 144.233C12.2516 144.445 11.7602 144.887 11.4857 145.462C11.2113 146.036 11.1764 146.697 11.3888 147.297L14.5914 156.353C14.8037 156.953 15.2459 157.445 15.8206 157.719C16.3953 157.994 17.0555 158.029 17.656 157.816L28.221 154.08L28.4879 154.834C28.7002 155.435 29.1424 155.926 29.7171 156.201C30.2919 156.475 30.952 156.51 31.5525 156.298L36.0804 154.696C36.6808 154.484 37.1723 154.042 37.4467 153.467C37.7211 152.893 37.756 152.232 37.5437 151.632L34.3411 142.576C34.1287 141.976 33.6866 141.484 33.1118 141.21C32.5371 140.935 31.8769 140.9 31.2765 141.113ZM36.0344 152.166C36.1051 152.366 36.0935 152.586 36.002 152.777C35.9106 152.969 35.7467 153.116 35.5466 153.187L31.0187 154.788C30.8186 154.859 30.5985 154.848 30.4069 154.756C30.2154 154.665 30.068 154.501 29.9972 154.301L26.7946 145.245C26.7238 145.045 26.7354 144.825 26.8269 144.633C26.9184 144.442 27.0822 144.294 27.2824 144.223L31.8102 142.622C32.0104 142.551 32.2305 142.563 32.422 142.654C32.6136 142.746 32.761 142.91 32.8318 143.11L36.0344 152.166ZM27.5124 156.878C27.5831 157.078 27.5715 157.298 27.4801 157.489C27.3886 157.681 27.2247 157.828 27.0246 157.899L23.2514 159.233C23.0512 159.304 22.8312 159.293 22.6396 159.201C22.448 159.11 22.3006 158.946 22.2298 158.746C22.1591 158.546 22.1707 158.325 22.2622 158.134C22.3536 157.942 22.5175 157.795 22.7176 157.724L26.4908 156.39C26.691 156.319 26.911 156.331 27.1026 156.422C27.2942 156.514 27.4416 156.677 27.5124 156.878ZM31.8562 145.153C31.927 145.353 31.9154 145.573 31.8239 145.765C31.7325 145.956 31.5686 146.104 31.3685 146.174L29.8592 146.708C29.659 146.779 29.439 146.767 29.2474 146.676C29.0558 146.584 28.9084 146.421 28.8377 146.22C28.7669 146.02 28.7785 145.8 28.87 145.609C28.9614 145.417 29.1253 145.27 29.3254 145.199L30.8347 144.665C31.0349 144.594 31.2549 144.606 31.4465 144.697C31.6381 144.789 31.7855 144.953 31.8562 145.153Z" fill="#7269DA"/>
</g>
</g>
<g clip-path="url(#clip3_3552_3)">
<rect x="172.244" y="136.305" width="36.5919" height="36.5919" rx="18.296" transform="rotate(24.8674 172.244 136.305)" fill="#FFCACA"/>
<g clip-path="url(#clip4_3552_3)">
<path d="M189.109 154.118L181.639 150.656C181.143 150.426 180.577 150.403 180.065 150.591C179.552 150.779 179.135 151.162 178.906 151.658L172.558 165.352C172.329 165.848 172.305 166.414 172.493 166.926C172.681 167.439 173.065 167.856 173.56 168.085L181.03 171.548C181.525 171.777 182.092 171.801 182.604 171.613C183.117 171.425 183.533 171.041 183.763 170.546L190.11 156.851C190.34 156.356 190.363 155.79 190.176 155.277C189.988 154.765 189.604 154.348 189.109 154.118ZM181.062 151.901L188.531 155.363C188.697 155.44 188.825 155.579 188.887 155.749C188.95 155.92 188.942 156.109 188.865 156.274L188.577 156.897L179.862 152.857L180.151 152.235C180.227 152.07 180.366 151.942 180.537 151.879C180.708 151.816 180.897 151.824 181.062 151.901ZM181.607 170.303L174.137 166.84C173.972 166.764 173.844 166.625 173.782 166.454C173.719 166.283 173.727 166.095 173.803 165.929L174.092 165.307L182.807 169.346L182.518 169.969C182.442 170.134 182.303 170.262 182.132 170.324C181.961 170.387 181.772 170.379 181.607 170.303Z" fill="#FA5252"/>
</g>
</g>
<rect x="172.408" y="26.5291" width="36.5919" height="36.5919" rx="18.296" fill="#F7931A"/>
<path fill-rule="evenodd" clip-rule="evenodd" d="M199.55 42.4449C199.879 40.0019 198.026 38.7265 195.484 37.8642L196.274 34.5589L194.265 34.0739L193.499 37.3073C192.967 37.1816 192.429 37.0558 191.897 36.9481L192.662 33.7146L190.629 33.2296L189.84 36.5349C189.625 36.484 189.408 36.4391 189.191 36.3942L189.191 36.3942C188.975 36.3493 188.758 36.3044 188.543 36.2535L185.774 35.5888L185.266 37.7265C185.266 37.7265 186.767 38.0558 186.713 38.0858C187.526 38.2893 187.682 38.8223 187.652 39.2294L186.761 42.9958C186.78 43.0043 186.801 43.0097 186.824 43.0156L186.824 43.0157C186.866 43.0265 186.914 43.0388 186.964 43.0737C186.925 43.0617 186.894 43.0557 186.863 43.0497L186.863 43.0497C186.831 43.0437 186.8 43.0377 186.761 43.0258L185.541 48.2951C185.44 48.5466 185.183 48.9058 184.626 48.7801C184.65 48.8041 183.15 48.4208 183.15 48.4208L182.199 50.7381L184.818 51.3489C185.008 51.3982 185.198 51.4438 185.386 51.489L185.386 51.4891L185.386 51.4891C185.678 51.5591 185.965 51.6281 186.241 51.7082L185.452 55.0434L187.461 55.5284L188.25 52.2231C188.812 52.3728 189.344 52.5046 189.852 52.6303L189.063 55.9117L191.072 56.3967L191.861 53.0614C195.293 53.6722 197.858 53.3908 198.899 50.2591C199.736 47.7622 198.821 46.3371 196.991 45.397C198.331 45.0916 199.299 44.2233 199.55 42.4449ZM195.586 42.4449C195.092 44.5486 192.025 43.7556 190.678 43.4073C190.575 43.3808 190.483 43.357 190.402 43.3371L191.371 39.3192C191.491 39.3488 191.64 39.3807 191.81 39.4172L191.81 39.4172C193.226 39.7204 196.088 40.3335 195.586 42.4449ZM195.03 48.9298C194.489 51.2378 190.846 50.3022 189.231 49.8874L189.23 49.8873L189.23 49.8872C189.098 49.8533 188.98 49.8229 188.878 49.798L189.918 45.367C190.064 45.4026 190.244 45.4413 190.447 45.4852C192.161 45.8546 195.575 46.5909 195.03 48.9298Z" fill="white"/>
<rect x="85.6504" y="76.556" width="42.9814" height="42.9814" fill="#0A0A0A"/>
<path d="M106.53 114.425L91.7372 86.3663H99.2561L105.308 99.02L107.264 104.094L109.22 99.02L115.211 86.3663H122.546L107.814 114.425H106.53Z" fill="white"/>
<defs>
<clipPath id="clip0_3552_3">
<rect width="21.9552" height="21.9552" fill="white" transform="translate(29.6995 18.7118) rotate(-15)"/>
</clipPath>
<clipPath id="clip1_3552_3">
<rect x="0.426025" y="138.443" width="36.5919" height="36.5919" rx="18.296" transform="rotate(-19.4763 0.426025 138.443)" fill="white"/>
</clipPath>
<clipPath id="clip2_3552_3">
<rect width="25.6143" height="25.6143" fill="white" transform="translate(7.74438 141.794) rotate(-19.4763)"/>
</clipPath>
<clipPath id="clip3_3552_3">
<rect x="172.244" y="136.305" width="36.5919" height="36.5919" rx="18.296" transform="rotate(24.8674 172.244 136.305)" fill="white"/>
</clipPath>
<clipPath id="clip4_3552_3">
<rect width="21.9552" height="21.9552" fill="white" transform="translate(175.991 146.526) rotate(24.8674)"/>
</clipPath>
</defs>
</svg>
